<svg xmlns="http://www.w3.org/2000/svg" xmlns:xlink="http://www.w3.org/1999/xlink" width="1000" zoomAndPan="magnify" viewBox="0 0 750 749.999995" height="1000" preserveAspectRatio="xMidYMid meet" version="1.0"><defs><g><g id="id1"/></g></defs><rect x="-75" width="900" fill="rgb(100%, 100%, 100%)" y="-74.999999" height="899.999994" fill-opacity="1"/><rect x="-75" width="900" fill="rgb(100%, 100%, 100%)" y="-74.999999" height="899.999994" fill-opacity="1"/><rect x="-75" width="900" fill="rgb(100%, 100%, 100%)" y="-74.999999" height="899.999994" fill-opacity="1"/><rect x="-75" width="900" fill="rgb(100%, 100%, 100%)" y="-74.999999" height="899.999994" fill-opacity="1"/><g fill="rgb(0%, 0%, 0%)" fill-opacity="1"><g transform="translate(161.844815, 225.12129)"><g><path d="M 47 -53.96875 C 47.3125 -37.957031 46.59375 -23.484375 44.84375 -10.546875 L 44.640625 -9.125 L 44.359375 -7.84375 C 44.085938 -6.851562 43.546875 -6 42.734375 -5.28125 C 42.109375 -4.6875 42.039062 -4.300781 42.53125 -4.125 L 43.21875 -4.0625 L 43.953125 -4.0625 L 48.625 -3.78125 L 53.21875 -3.578125 L 53.96875 -3.453125 L 54.640625 -3.3125 C 55.085938 -3.082031 55.3125 -2.675781 55.3125 -2.09375 C 55.3125 -0.832031 54.613281 -0.132812 53.21875 0 L 50.109375 0.34375 L 47 0.546875 C 44.476562 0.722656 42.40625 1.015625 40.78125 1.421875 C 37.757812 2.097656 33.363281 2.097656 27.59375 1.421875 L 21.03125 0.671875 C 18.59375 0.535156 16.382812 0.695312 14.40625 1.15625 C 13.90625 1.238281 13.519531 1.125 13.25 0.8125 L 12.921875 0.265625 L 12.640625 -0.34375 C 12.285156 -1.644531 12.785156 -2.476562 14.140625 -2.84375 C 16.890625 -3.46875 19.097656 -3.804688 20.765625 -3.859375 C 23.015625 -3.992188 24.140625 -5.1875 24.140625 -7.4375 C 24.179688 -31.738281 21.816406 -67.46875 17.046875 -114.625 C 16.816406 -117.15625 15.550781 -118.304688 13.25 -118.078125 L 10.421875 -118.078125 L 7.640625 -118.34375 C 5.335938 -118.4375 3.46875 -118.300781 2.03125 -117.9375 C 1.3125 -117.757812 0.75 -117.941406 0.34375 -118.484375 C 0.113281 -118.753906 0.0664062 -119.066406 0.203125 -119.421875 L 0.75 -120.234375 C 1.644531 -121.585938 3.039062 -122.242188 4.9375 -122.203125 C 9.488281 -122.023438 15.753906 -122.429688 23.734375 -123.421875 L 33.140625 -124.640625 C 36.648438 -124.992188 39.78125 -125.171875 42.53125 -125.171875 L 44.84375 -125.171875 C 45.78125 -125.171875 46.546875 -125.082031 47.140625 -124.90625 C 48.804688 -124.59375 49.75 -123.804688 49.96875 -122.546875 C 50.101562 -121.503906 49.40625 -120.710938 47.875 -120.171875 L 45.84375 -119.5625 L 43.828125 -119.09375 C 43.421875 -118.914062 42.785156 -118.800781 41.921875 -118.75 L 40.03125 -118.484375 L 39.296875 -118.28125 L 38.75 -117.875 C 38.34375 -117.46875 38.390625 -117.015625 38.890625 -116.515625 C 40.285156 -115.253906 41.140625 -113.585938 41.453125 -111.515625 L 41.71875 -108.671875 L 41.859375 -105.96875 L 43.625 -93.0625 L 45.171875 -80 C 46.296875 -70.082031 46.90625 -61.40625 47 -53.96875 Z M 47 -53.96875 "/></g></g></g><g fill="rgb(0%, 0%, 0%)" fill-opacity="1"><g transform="translate(230.686096, 225.12129)"><g><path d="M 98.671875 -14.34375 L 97.921875 -26.171875 L 97.921875 -26.78125 L 97.859375 -29.6875 L 97.65625 -32.53125 C 97.25 -35.90625 97.09375 -40.34375 97.1875 -45.84375 L 97.390625 -56.53125 C 97.429688 -59.195312 97.675781 -61.296875 98.125 -62.828125 C 98.757812 -64.898438 98.828125 -66.90625 98.328125 -68.84375 C 97.960938 -70.15625 97.894531 -71.484375 98.125 -72.828125 C 98.394531 -74.453125 98.347656 -76.28125 97.984375 -78.3125 L 97.578125 -81.765625 C 97.085938 -85.953125 96.253906 -90.523438 95.078125 -95.484375 C 94.722656 -97.148438 94.023438 -98.820312 92.984375 -100.5 L 92.109375 -101.84375 L 91.359375 -103.265625 C 90.546875 -104.890625 89.265625 -105.992188 87.515625 -106.578125 L 86.296875 -106.984375 C 85.835938 -107.160156 85.472656 -107.382812 85.203125 -107.65625 C 84.484375 -108.519531 83.425781 -108.882812 82.03125 -108.75 C 79.238281 -108.425781 75.96875 -108.359375 72.21875 -108.546875 L 70.46875 -108.40625 C 69.5625 -108.226562 69.066406 -107.707031 68.984375 -106.84375 L 68.84375 -105.5625 L 68.78125 -104.28125 C 68.863281 -102.925781 68.429688 -101.6875 67.484375 -100.5625 C 65.546875 -98.21875 63.769531 -94.5 62.15625 -89.40625 L 61.265625 -86.96875 L 57.6875 -76.828125 C 56.375 -72.992188 55.359375 -69.585938 54.640625 -66.609375 L 52.203125 -57.34375 L 51.796875 -55.796875 C 51.617188 -55.253906 51.328125 -54.800781 50.921875 -54.4375 C 50.472656 -54.800781 50.046875 -55.273438 49.640625 -55.859375 L 48.625 -57.421875 L 44.359375 -64.65625 C 43.003906 -67 42.082031 -68.800781 41.59375 -70.0625 L 37.59375 -79.875 C 36.019531 -83.613281 34.578125 -86.8125 33.265625 -89.46875 C 31.191406 -93.570312 29.050781 -96.660156 26.84375 -98.734375 L 26.3125 -99.203125 L 25.96875 -99.8125 C 25.789062 -100.488281 25.382812 -101.300781 24.75 -102.25 L 24 -103.40625 L 23.40625 -104.625 C 22.457031 -106.96875 20.695312 -108.5 18.125 -109.21875 C 15.957031 -109.851562 13.566406 -110.125 10.953125 -110.03125 C 8.742188 -109.9375 7.03125 -109.394531 5.8125 -108.40625 C 4.144531 -107.050781 2.769531 -105.832031 1.6875 -104.75 C 0.925781 -103.9375 0.585938 -102.96875 0.671875 -101.84375 L 1.015625 -97.25 L 1.21875 -83.59375 L 1.28125 -80.34375 L 1.5625 -77.09375 C 1.78125 -74.34375 1.867188 -72.179688 1.828125 -70.609375 L 1.96875 -66.40625 L 2.09375 -62.21875 L 2.03125 -56.46875 L 1.890625 -50.65625 L 1.890625 -43.546875 L 1.765625 -36.453125 C 1.535156 -28.109375 1.710938 -21.570312 2.296875 -16.84375 C 2.429688 -15.800781 2.476562 -14.832031 2.4375 -13.9375 C 2.382812 -12.351562 2.675781 -10.640625 3.3125 -8.796875 L 4.46875 -5.203125 C 4.738281 -4.210938 5.390625 -3.15625 6.421875 -2.03125 C 7.546875 -0.769531 9.375 -0.00390625 11.90625 0.265625 C 14.46875 0.585938 16.492188 0.207031 17.984375 -0.875 C 19.972656 -2.226562 21.347656 -3.5625 22.109375 -4.875 C 24.140625 -8.070312 25.40625 -10.773438 25.90625 -12.984375 C 26.53125 -15.734375 26.957031 -19.566406 27.1875 -24.484375 L 27.390625 -30.84375 L 27.53125 -37.1875 L 27.796875 -42.125 L 28.140625 -47 L 28.46875 -50.65625 L 28.609375 -54.234375 L 28.671875 -59.84375 L 28.609375 -65.53125 L 28.265625 -72.90625 C 28.085938 -75.65625 27.863281 -78.085938 27.59375 -80.203125 L 27.390625 -82.640625 L 28.46875 -80.546875 L 29.34375 -78.453125 L 31.25 -74.1875 C 34.40625 -67.375 37.582031 -61.648438 40.78125 -57.015625 L 42.328125 -54.90625 L 43.828125 -52.75 C 44.503906 -51.664062 45.40625 -50.492188 46.53125 -49.234375 L 48.078125 -47.609375 L 49.640625 -45.984375 C 50.398438 -45.171875 51.164062 -44.832031 51.9375 -44.96875 C 53.914062 -45.289062 55.3125 -45.921875 56.125 -46.859375 C 57.84375 -48.890625 59.21875 -50.96875 60.25 -53.09375 L 62.21875 -57.28125 C 62.625 -58.050781 62.9375 -58.863281 63.15625 -59.71875 L 65.9375 -70.0625 L 67.890625 -76.890625 C 68.023438 -73.828125 68.023438 -70.648438 67.890625 -67.359375 L 67.6875 -61 L 67.6875 -54.640625 C 68.007812 -49.410156 68.078125 -44.878906 67.890625 -41.046875 L 67.96875 -39.296875 C 68.414062 -36.316406 68.503906 -33.335938 68.234375 -30.359375 L 68.171875 -28.609375 C 68.390625 -26.210938 68.390625 -22.648438 68.171875 -17.921875 C 68.078125 -16.023438 68.144531 -14.195312 68.375 -12.4375 C 68.6875 -10.28125 69.113281 -8.300781 69.65625 -6.5 C 70.289062 -4.332031 70.40625 -1.265625 70 2.703125 L 69.453125 9.53125 L 69.046875 16.296875 C 68.816406 19.316406 70.171875 20.738281 73.109375 20.5625 C 74.816406 20.425781 76.910156 20.628906 79.390625 21.171875 L 82.578125 21.703125 C 85.816406 22.242188 88.675781 21.703125 91.15625 20.078125 C 93.226562 18.734375 94.648438 17.222656 95.421875 15.546875 C 97.222656 11.453125 98.257812 7.664062 98.53125 4.1875 C 98.707031 2.070312 98.773438 -0.832031 98.734375 -4.53125 L 98.734375 -8.859375 L 98.796875 -13.1875 Z M 98.671875 -14.34375 "/></g></g></g><g fill="rgb(0%, 0%, 0%)" fill-opacity="1"><g transform="translate(343.280149, 225.12129)"><g><path d="M 32.265625 -74.1875 C 31.671875 -72.289062 31.171875 -70.125 30.765625 -67.6875 L 29.953125 -61.265625 L 29.484375 -56.40625 C 29.253906 -54.550781 28.984375 -52.925781 28.671875 -51.53125 L 28.46875 -50.046875 C 28.375 -49.273438 28.710938 -48.890625 29.484375 -48.890625 C 30.066406 -48.890625 30.65625 -48.957031 31.25 -49.09375 L 37.59375 -50.515625 C 38.945312 -50.828125 39.445312 -51.707031 39.09375 -53.15625 L 38.484375 -55.3125 L 36.65625 -60.796875 L 35.234375 -65.46875 L 33.75 -70.203125 L 33.0625 -72.15625 Z M 0.75 -0.140625 L 0.8125 -2.359375 C 0.769531 -3.265625 0.816406 -4.28125 0.953125 -5.40625 C 1.128906 -6.582031 1.21875 -7.753906 1.21875 -8.921875 C 1.082031 -12.128906 1.441406 -16.820312 2.296875 -23 L 3.109375 -30.03125 L 3.921875 -38.078125 L 4.734375 -46.046875 L 5.546875 -51.328125 L 6.359375 -59.578125 L 7.234375 -67.890625 L 7.78125 -72.359375 L 8.390625 -76.890625 L 8.921875 -81.078125 L 9.53125 -85.28125 C 9.988281 -88.613281 10.238281 -91.40625 10.28125 -93.65625 L 10.484375 -95.28125 L 10.75 -96.90625 L 11.765625 -105.4375 C 11.898438 -106.695312 12.441406 -107.484375 13.390625 -107.796875 C 14.691406 -108.296875 15.796875 -109.265625 16.703125 -110.703125 L 17.109375 -111.25 L 17.515625 -111.71875 C 18.015625 -112.21875 18.46875 -112.285156 18.875 -111.921875 C 19.320312 -111.609375 19.992188 -111.269531 20.890625 -110.90625 L 21.984375 -110.5 L 22.921875 -109.96875 C 23.773438 -109.375 24.8125 -109.054688 26.03125 -109.015625 C 29.007812 -108.972656 31.21875 -107.304688 32.65625 -104.015625 C 34.507812 -99.816406 36.539062 -93.75 38.75 -85.8125 L 40.109375 -81.21875 L 41.3125 -76.625 L 42 -74.65625 L 42.671875 -72.765625 L 43.953125 -68.84375 L 45.25 -64.859375 C 46.320312 -61.609375 47.109375 -58.945312 47.609375 -56.875 C 48.054688 -55.207031 48.734375 -53.492188 49.640625 -51.734375 L 50.578125 -49.375 L 51.390625 -47 L 54.78125 -38.546875 L 55.1875 -37.734375 L 55.390625 -36.921875 C 55.472656 -35.566406 55.832031 -34.082031 56.46875 -32.46875 L 57.28125 -30.4375 L 58.234375 -28.328125 C 59.035156 -26.617188 59.890625 -24.59375 60.796875 -22.25 L 63.03125 -16.09375 C 63.75 -14.15625 64.601562 -12.0625 65.59375 -9.8125 C 66.1875 -8.457031 66.59375 -7.015625 66.8125 -5.484375 C 66.90625 -4.847656 66.90625 -4.171875 66.8125 -3.453125 C 66.59375 -1.734375 65.601562 -0.738281 63.84375 -0.46875 C 63.070312 -0.332031 62.484375 -0.5625 62.078125 -1.15625 L 60.453125 -3.375 L 58.828125 -5.609375 C 57.523438 -7.367188 56.554688 -8.945312 55.921875 -10.34375 L 53.296875 -15.75 L 50.71875 -21.171875 C 48.820312 -25.316406 47.289062 -29.015625 46.125 -32.265625 L 44.359375 -37.265625 L 42.609375 -42.265625 L 42.40625 -42.9375 L 42.125 -43.6875 C 41.8125 -44.5 41.160156 -44.835938 40.171875 -44.703125 C 36.515625 -44.203125 33.582031 -44.085938 31.375 -44.359375 C 29.84375 -44.585938 28.828125 -44.5 28.328125 -44.09375 C 27.835938 -43.6875 27.476562 -42.71875 27.25 -41.1875 L 23.0625 -14.8125 L 22.390625 -11.5625 L 20.828125 -4.9375 C 20.015625 -0.875 18.820312 2.328125 17.25 4.671875 C 16.84375 5.296875 16.523438 6.171875 16.296875 7.296875 C 16.023438 8.742188 15.101562 10.050781 13.53125 11.21875 C 11.945312 12.351562 10.410156 12.875 8.921875 12.78125 L 5.6875 12.640625 C 4.820312 12.691406 4.007812 12.46875 3.25 11.96875 L 2.296875 11.21875 L 1.359375 10.34375 C 0.453125 9.488281 0.046875 8.25 0.140625 6.625 Z M 0.75 -0.140625 "/></g></g></g><g fill="rgb(0%, 0%, 0%)" fill-opacity="1"><g transform="translate(423.076527, 225.12129)"><g><path d="M 72.5625 -48.890625 C 69.445312 -50.421875 63.113281 -51.007812 53.5625 -50.65625 C 52.707031 -50.519531 51.46875 -50.425781 49.84375 -50.375 L 45.84375 -50.171875 C 42.507812 -49.953125 39.71875 -49.300781 37.46875 -48.21875 L 36.71875 -48.015625 L 35.90625 -47.75 C 35.414062 -47.519531 35.191406 -47.085938 35.234375 -46.453125 C 35.328125 -45.867188 35.6875 -45.488281 36.3125 -45.3125 L 37.125 -45.25 L 37.9375 -45.171875 C 40.375 -44.816406 43.257812 -44.660156 46.59375 -44.703125 L 50.921875 -44.84375 L 55.25 -45.046875 C 57.820312 -45.128906 58.972656 -44 58.703125 -41.65625 C 58.566406 -40.53125 58.476562 -39 58.4375 -37.0625 L 58.296875 -32.46875 C 57.660156 -22.050781 55.96875 -13.210938 53.21875 -5.953125 C 51.863281 -2.390625 49.769531 -0.925781 46.9375 -1.5625 C 38.5 -3.40625 32.929688 -7.664062 30.234375 -14.34375 C 26.484375 -23.539062 24.585938 -35.035156 24.546875 -48.828125 L 24.484375 -67.421875 C 24.566406 -74.367188 24.742188 -80.59375 25.015625 -86.09375 L 25.5 -91.5 L 26.234375 -96.90625 C 26.867188 -101.457031 27.140625 -105.109375 27.046875 -107.859375 C 27.003906 -109.578125 27.769531 -111.15625 29.34375 -112.59375 C 29.976562 -113.1875 30.75 -113.753906 31.65625 -114.296875 L 34.21875 -115.703125 C 35.300781 -116.242188 36.269531 -116.085938 37.125 -115.234375 L 38.078125 -114.015625 L 39.015625 -112.796875 C 40.640625 -111.128906 42.21875 -109.054688 43.75 -106.578125 C 45.332031 -104.003906 46.910156 -100.710938 48.484375 -96.703125 L 50.375 -91.5625 L 52.28125 -86.421875 L 52.75 -85.546875 L 52.953125 -85.6875 L 53.015625 -85.8125 C 52.835938 -86.8125 53.066406 -88.117188 53.703125 -89.734375 L 54.375 -91.640625 C 54.550781 -92.359375 54.59375 -93.03125 54.5 -93.65625 C 53.695312 -100.019531 51.128906 -107.367188 46.796875 -115.703125 C 44.898438 -119.453125 41.859375 -121.84375 37.671875 -122.875 C 33.835938 -123.820312 30.003906 -123.507812 26.171875 -121.9375 C 20.941406 -119.726562 16.523438 -116.882812 12.921875 -113.40625 C 8.765625 -109.488281 6.148438 -105.207031 5.078125 -100.5625 C 3.085938 -91.90625 1.9375 -84.601562 1.625 -78.65625 L 0.875 -65.796875 L 0.34375 -53.015625 C 0.113281 -43.273438 0.492188 -34.6875 1.484375 -27.25 C 4.097656 -7.457031 14.359375 5.410156 32.265625 11.359375 C 39.296875 13.660156 46.144531 13.117188 52.8125 9.734375 C 59.039062 6.492188 62.921875 1.332031 64.453125 -5.75 C 65.441406 -10.476562 65.734375 -16.296875 65.328125 -23.203125 L 64.65625 -31.921875 L 64.046875 -40.640625 C 63.910156 -43.523438 64.878906 -45.035156 66.953125 -45.171875 L 69.71875 -45.640625 L 72.5 -46.25 L 73.03125 -46.390625 L 73.578125 -46.59375 C 73.890625 -46.726562 74.070312 -47 74.125 -47.40625 C 74.164062 -47.90625 74.003906 -48.242188 73.640625 -48.421875 L 73.109375 -48.6875 Z M 72.5625 -48.890625 "/></g></g></g><g fill="rgb(0%, 0%, 0%)" fill-opacity="1"><g transform="translate(510.784929, 225.12129)"><g><path d="M 61.8125 -86.625 C 49.59375 -89.738281 38.300781 -90.347656 27.9375 -88.453125 C 24.957031 -87.910156 23.039062 -89.015625 22.1875 -91.765625 L 21.375 -94.75 L 20.359375 -100.359375 L 19.34375 -106.046875 C 18.53125 -110.503906 17.46875 -114.175781 16.15625 -117.0625 C 15.4375 -118.6875 16.070312 -119.539062 18.0625 -119.625 L 21.90625 -119.703125 L 25.765625 -119.828125 C 28.691406 -120.015625 31.21875 -120.445312 33.34375 -121.125 L 34.21875 -121.328125 L 35.09375 -121.59375 C 35.726562 -121.863281 36 -122.359375 35.90625 -123.078125 C 35.820312 -123.753906 35.441406 -124.179688 34.765625 -124.359375 L 33.875 -124.5625 L 32.9375 -124.5625 L 5.75 -125.578125 C 4.53125 -125.578125 3.269531 -124.859375 1.96875 -123.421875 C 0.65625 -122.023438 0 -120.671875 0 -119.359375 L 0.40625 -100.015625 C 0.539062 -92.398438 0.492188 -85.953125 0.265625 -80.671875 C 0.0859375 -75.710938 0.179688 -69.921875 0.546875 -63.296875 L 1.015625 -54.640625 L 1.5625 -45.984375 C 2.457031 -31.515625 2.34375 -19.953125 1.21875 -11.296875 C 0.632812 -7.828125 2.054688 -4.847656 5.484375 -2.359375 C 8.859375 0.0664062 12.191406 0.628906 15.484375 -0.671875 C 22.160156 -3.378906 32.035156 -5.140625 45.109375 -5.953125 L 47.953125 -6.09375 L 50.78125 -6.15625 C 53 -6.332031 54.875 -6.78125 56.40625 -7.5 L 57.015625 -7.84375 L 57.625 -8.25 C 57.976562 -8.613281 58.113281 -9.039062 58.03125 -9.53125 C 57.894531 -10.03125 57.597656 -10.414062 57.140625 -10.6875 C 56.691406 -10.957031 56.242188 -11.046875 55.796875 -10.953125 C 54.171875 -10.679688 52.320312 -10.613281 50.25 -10.75 L 44.640625 -11.296875 C 39.898438 -11.785156 36.175781 -11.601562 33.46875 -10.75 C 31.257812 -10.03125 30.628906 -10.796875 31.578125 -13.046875 C 33.160156 -16.796875 33.789062 -20.71875 33.46875 -24.8125 L 33.0625 -31.65625 L 32.734375 -38.484375 L 32.46875 -42.8125 L 32.1875 -47.0625 C 31.914062 -50.40625 31.304688 -53.179688 30.359375 -55.390625 C 28.960938 -58.628906 27.925781 -62.414062 27.25 -66.75 L 26.578125 -72.5625 L 26.03125 -78.375 C 25.894531 -80.175781 26.660156 -81.101562 28.328125 -81.15625 C 30.222656 -81.15625 32.976562 -81.332031 36.59375 -81.6875 L 40.71875 -82.03125 L 44.84375 -82.234375 L 53.21875 -82.234375 C 56.507812 -82.273438 59.304688 -82.59375 61.609375 -83.1875 C 62.867188 -83.539062 63.546875 -84.035156 63.640625 -84.671875 C 63.773438 -85.296875 63.613281 -85.769531 63.15625 -86.09375 L 62.484375 -86.421875 Z M 61.8125 -86.625 "/></g></g></g><g fill="rgb(0%, 0%, 0%)" fill-opacity="1"><g transform="translate(121.198562, 418.034484)"><g><path d="M 52 -24.953125 L 51.9375 -24.6875 L 51.265625 -14.203125 L 50.984375 -9.40625 L 50.859375 -8.109375 L 50.78125 -6.828125 C 50.914062 -4.929688 50.554688 -2.992188 49.703125 -1.015625 C 49.390625 -0.242188 49.144531 0.519531 48.96875 1.28125 C 48.332031 4.257812 46.753906 7.414062 44.234375 10.75 L 41.65625 14.46875 C 40.976562 15.507812 40.234375 16.207031 39.421875 16.5625 C 38.203125 17.101562 37.097656 17.894531 36.109375 18.9375 C 35.296875 19.789062 34.144531 20.265625 32.65625 20.359375 C 29.90625 20.492188 26.910156 19.863281 23.671875 18.46875 C 22.273438 17.832031 20.675781 16.972656 18.875 15.890625 L 16.5 14.46875 L 14.203125 12.984375 C 11.992188 11.628906 10.191406 9.984375 8.796875 8.046875 C 5.859375 4.035156 3.941406 0.132812 3.046875 -3.65625 C 1.554688 -10.1875 0.675781 -16.8125 0.40625 -23.53125 L 0.140625 -33.265625 L 0 -43.078125 L 0 -51.875 L 0.140625 -60.734375 L 0.140625 -61.203125 L 0.875 -69.71875 C 1.195312 -73.144531 1.515625 -76.007812 1.828125 -78.3125 C 2.910156 -86.25 6.289062 -93.007812 11.96875 -98.59375 C 13.1875 -99.769531 14.675781 -101.054688 16.4375 -102.453125 L 21.03125 -105.96875 C 21.664062 -106.46875 22.296875 -106.828125 22.921875 -107.046875 C 26.171875 -108.179688 29.125 -108.546875 31.78125 -108.140625 C 33.039062 -107.953125 34.054688 -107.382812 34.828125 -106.4375 L 36.515625 -104.140625 L 37.265625 -103 L 38 -101.90625 C 39.21875 -100.375 40.078125 -98.367188 40.578125 -95.890625 C 41.066406 -93.597656 41.25 -91.523438 41.125 -89.671875 C 41.03125 -88.953125 41.050781 -88.117188 41.1875 -87.171875 L 41.515625 -84.734375 L 42 -81.015625 L 42.125 -77.359375 C 42.21875 -75.878906 42.015625 -74.707031 41.515625 -73.84375 C 41.378906 -73.625 41.203125 -73.515625 40.984375 -73.515625 L 40.640625 -73.578125 L 40.4375 -73.84375 L 39.625 -76.34375 L 39.296875 -77.96875 L 38.953125 -79.59375 L 38.6875 -80.75 L 38.28125 -81.890625 L 36.921875 -84.9375 L 35.703125 -88.046875 C 33.992188 -92.054688 31.941406 -95.234375 29.546875 -97.578125 C 29.003906 -98.117188 28.421875 -98.164062 27.796875 -97.71875 C 26.128906 -96.414062 24.863281 -94.882812 24 -93.125 L 23.328125 -91.765625 L 22.71875 -90.34375 C 22.269531 -89.269531 22 -88.28125 21.90625 -87.375 L 21.984375 -85.40625 L 22.046875 -83.515625 L 21.90625 -82.703125 L 21.640625 -81.828125 C 21.460938 -81.109375 21.375 -80.523438 21.375 -80.078125 C 21.375 -78.898438 21.191406 -77.390625 20.828125 -75.546875 C 20.515625 -73.921875 20.46875 -72.023438 20.6875 -69.859375 L 21.03125 -64.859375 L 21.234375 -59.84375 L 21.640625 -49.90625 L 21.90625 -45.453125 L 22.109375 -41.046875 L 22.59375 -33.953125 L 23.125 -26.78125 L 23.265625 -25.015625 L 23.328125 -23.265625 L 23.46875 -20.96875 L 23.734375 -18.734375 L 24.40625 -14.140625 C 24.726562 -12.421875 25.113281 -10.910156 25.5625 -9.609375 C 26.332031 -7.484375 27.164062 -5.703125 28.0625 -4.265625 C 29.1875 -2.460938 30.269531 -1.085938 31.3125 -0.140625 C 32.707031 1.210938 34.195312 1.28125 35.78125 0.0625 C 38.300781 -1.78125 40.171875 -3.492188 41.390625 -5.078125 C 42.472656 -6.515625 43.238281 -8.335938 43.6875 -10.546875 C 44.132812 -13.160156 44.785156 -16.179688 45.640625 -19.609375 L 46.046875 -21.703125 C 46.410156 -24.097656 46.882812 -26.039062 47.46875 -27.53125 C 47.695312 -28.019531 47.878906 -28.691406 48.015625 -29.546875 L 48.28125 -31.71875 L 48.359375 -32.125 L 48.421875 -32.53125 C 48.515625 -32.84375 48.695312 -33.046875 48.96875 -33.140625 C 49.28125 -33.222656 49.570312 -33.15625 49.84375 -32.9375 L 50.109375 -32.53125 L 50.453125 -32.1875 L 50.78125 -31.71875 L 51.125 -31.25 C 52.25 -29.894531 52.632812 -28.25 52.28125 -26.3125 L 52.140625 -25.828125 L 52 -25.09375 Z M 52 -24.953125 "/></g></g></g><g fill="rgb(0%, 0%, 0%)" fill-opacity="1"><g transform="translate(187.537764, 418.034484)"><g><path d="M 44.5625 -22.65625 C 46.007812 -22.789062 47.09375 -22.992188 47.8125 -23.265625 C 50.738281 -24.347656 53.0625 -26.421875 54.78125 -29.484375 L 55.921875 -31.78125 L 57.015625 -34.15625 C 57.503906 -35.320312 58.019531 -36.804688 58.5625 -38.609375 L 59.921875 -43.21875 C 61.046875 -46.957031 61.722656 -50.359375 61.953125 -53.421875 L 62.015625 -55.453125 L 62.015625 -60.125 L 62.078125 -62.765625 C 62.128906 -64.835938 61.925781 -66.59375 61.46875 -68.03125 L 61.40625 -68.578125 L 61.34375 -69.109375 C 60.976562 -72.222656 60.253906 -74.613281 59.171875 -76.28125 C 58.992188 -76.644531 58.789062 -77.140625 58.5625 -77.765625 C 58.34375 -78.492188 57.894531 -79.507812 57.21875 -80.8125 L 56.40625 -82.375 L 55.59375 -83.921875 C 55 -85.179688 54.59375 -86.285156 54.375 -87.234375 L 54.109375 -87.84375 L 53.703125 -88.453125 L 49.578125 -94.203125 C 48.804688 -95.191406 47.789062 -95.710938 46.53125 -95.765625 C 44.945312 -95.804688 43.679688 -95.671875 42.734375 -95.359375 L 41.796875 -95.078125 L 40.78125 -94.953125 C 38.65625 -94.859375 36.601562 -93.796875 34.625 -91.765625 C 33.363281 -90.460938 31.921875 -88.613281 30.296875 -86.21875 C 27.859375 -82.707031 26.347656 -79.753906 25.765625 -77.359375 L 25.09375 -74.734375 L 24.484375 -71.953125 L 24.203125 -70.609375 L 23.875 -69.1875 L 23.609375 -68.296875 L 23.40625 -67.421875 L 23.0625 -64.375 L 22.796875 -61.265625 C 22.609375 -57.078125 22.71875 -53 23.125 -49.03125 C 23.582031 -44.289062 24.414062 -40.410156 25.625 -37.390625 C 27.300781 -33.023438 29.3125 -29.875 31.65625 -27.9375 L 31.984375 -27.65625 L 32.265625 -27.328125 C 35.503906 -24.078125 39.601562 -22.519531 44.5625 -22.65625 Z M 67.96875 -73.71875 C 67.914062 -72.988281 67.984375 -72.128906 68.171875 -71.140625 L 68.578125 -68.640625 L 68.984375 -65.59375 L 69.1875 -62.484375 L 69.65625 -56.265625 C 69.695312 -55.273438 69.675781 -54.375 69.59375 -53.5625 L 69.25 -49.640625 L 68.90625 -45.640625 L 68.703125 -42.53125 L 68.4375 -39.421875 L 68.296875 -38.34375 L 68.09375 -37.265625 C 67.195312 -32.890625 65.9375 -28.535156 64.3125 -24.203125 C 63.363281 -21.816406 62.125 -19.539062 60.59375 -17.375 C 59.238281 -15.488281 57.273438 -13.707031 54.703125 -12.03125 C 53.128906 -11.039062 52.003906 -10.207031 51.328125 -9.53125 C 50.648438 -8.851562 49.835938 -8.3125 48.890625 -7.90625 L 46.046875 -6.828125 L 43.078125 -5.75 C 40.367188 -4.894531 37.460938 -4.847656 34.359375 -5.609375 C 30.117188 -6.691406 26.578125 -8 23.734375 -9.53125 L 22.71875 -10.078125 L 19.34375 -12.640625 L 16.03125 -15.21875 C 14.90625 -16.164062 13.617188 -17.40625 12.171875 -18.9375 C 10.597656 -20.601562 9.289062 -22.382812 8.25 -24.28125 C 6.132812 -28.289062 4.507812 -32.03125 3.375 -35.5 L 1.828125 -40.375 C 1.285156 -42.21875 0.878906 -43.863281 0.609375 -45.3125 L 0.40625 -46.328125 L 0.265625 -47.265625 L 0.0625 -54.171875 L 0 -61.0625 C 0.09375 -64.757812 0.519531 -68.523438 1.28125 -72.359375 L 2.96875 -80.609375 C 3.15625 -81.285156 3.425781 -82.144531 3.78125 -83.1875 L 4.671875 -85.6875 C 5.566406 -88.300781 7.4375 -91.816406 10.28125 -96.234375 C 12.582031 -99.890625 15.515625 -102.660156 19.078125 -104.546875 C 20.421875 -105.316406 21.863281 -105.878906 23.40625 -106.234375 L 26.4375 -106.921875 C 27.613281 -107.234375 28.609375 -107.546875 29.421875 -107.859375 C 30.273438 -108.265625 31.289062 -108.359375 32.46875 -108.140625 C 33.675781 -107.910156 35.070312 -107.910156 36.65625 -108.140625 C 40.257812 -108.585938 43.617188 -108.316406 46.734375 -107.328125 C 47.816406 -106.960938 48.71875 -106.597656 49.4375 -106.234375 C 52.457031 -104.484375 54.6875 -102.796875 56.125 -101.171875 C 59.195312 -97.742188 61.453125 -94.539062 62.890625 -91.5625 L 63.09375 -91.15625 L 63.234375 -90.75 C 63.679688 -88.726562 64.5625 -86.296875 65.875 -83.453125 C 66.28125 -82.597656 66.617188 -81.472656 66.890625 -80.078125 L 67.21875 -78.3125 L 67.484375 -76.546875 L 67.765625 -75.140625 Z M 67.96875 -73.71875 "/></g></g></g><g fill="rgb(0%, 0%, 0%)" fill-opacity="1"><g transform="translate(267.537026, 418.034484)"><g><path d="M 98.671875 -14.34375 L 97.921875 -26.171875 L 97.921875 -26.78125 L 97.859375 -29.6875 L 97.65625 -32.53125 C 97.25 -35.90625 97.09375 -40.34375 97.1875 -45.84375 L 97.390625 -56.53125 C 97.429688 -59.195312 97.675781 -61.296875 98.125 -62.828125 C 98.757812 -64.898438 98.828125 -66.90625 98.328125 -68.84375 C 97.960938 -70.15625 97.894531 -71.484375 98.125 -72.828125 C 98.394531 -74.453125 98.347656 -76.28125 97.984375 -78.3125 L 97.578125 -81.765625 C 97.085938 -85.953125 96.253906 -90.523438 95.078125 -95.484375 C 94.722656 -97.148438 94.023438 -98.820312 92.984375 -100.5 L 92.109375 -101.84375 L 91.359375 -103.265625 C 90.546875 -104.890625 89.265625 -105.992188 87.515625 -106.578125 L 86.296875 -106.984375 C 85.835938 -107.160156 85.472656 -107.382812 85.203125 -107.65625 C 84.484375 -108.519531 83.425781 -108.882812 82.03125 -108.75 C 79.238281 -108.425781 75.96875 -108.359375 72.21875 -108.546875 L 70.46875 -108.40625 C 69.5625 -108.226562 69.066406 -107.707031 68.984375 -106.84375 L 68.84375 -105.5625 L 68.78125 -104.28125 C 68.863281 -102.925781 68.429688 -101.6875 67.484375 -100.5625 C 65.546875 -98.21875 63.769531 -94.5 62.15625 -89.40625 L 61.265625 -86.96875 L 57.6875 -76.828125 C 56.375 -72.992188 55.359375 -69.585938 54.640625 -66.609375 L 52.203125 -57.34375 L 51.796875 -55.796875 C 51.617188 -55.253906 51.328125 -54.800781 50.921875 -54.4375 C 50.472656 -54.800781 50.046875 -55.273438 49.640625 -55.859375 L 48.625 -57.421875 L 44.359375 -64.65625 C 43.003906 -67 42.082031 -68.800781 41.59375 -70.0625 L 37.59375 -79.875 C 36.019531 -83.613281 34.578125 -86.8125 33.265625 -89.46875 C 31.191406 -93.570312 29.050781 -96.660156 26.84375 -98.734375 L 26.3125 -99.203125 L 25.96875 -99.8125 C 25.789062 -100.488281 25.382812 -101.300781 24.75 -102.25 L 24 -103.40625 L 23.40625 -104.625 C 22.457031 -106.96875 20.695312 -108.5 18.125 -109.21875 C 15.957031 -109.851562 13.566406 -110.125 10.953125 -110.03125 C 8.742188 -109.9375 7.03125 -109.394531 5.8125 -108.40625 C 4.144531 -107.050781 2.769531 -105.832031 1.6875 -104.75 C 0.925781 -103.9375 0.585938 -102.96875 0.671875 -101.84375 L 1.015625 -97.25 L 1.21875 -83.59375 L 1.28125 -80.34375 L 1.5625 -77.09375 C 1.78125 -74.34375 1.867188 -72.179688 1.828125 -70.609375 L 1.96875 -66.40625 L 2.09375 -62.21875 L 2.03125 -56.46875 L 1.890625 -50.65625 L 1.890625 -43.546875 L 1.765625 -36.453125 C 1.535156 -28.109375 1.710938 -21.570312 2.296875 -16.84375 C 2.429688 -15.800781 2.476562 -14.832031 2.4375 -13.9375 C 2.382812 -12.351562 2.675781 -10.640625 3.3125 -8.796875 L 4.46875 -5.203125 C 4.738281 -4.210938 5.390625 -3.15625 6.421875 -2.03125 C 7.546875 -0.769531 9.375 -0.00390625 11.90625 0.265625 C 14.46875 0.585938 16.492188 0.207031 17.984375 -0.875 C 19.972656 -2.226562 21.347656 -3.5625 22.109375 -4.875 C 24.140625 -8.070312 25.40625 -10.773438 25.90625 -12.984375 C 26.53125 -15.734375 26.957031 -19.566406 27.1875 -24.484375 L 27.390625 -30.84375 L 27.53125 -37.1875 L 27.796875 -42.125 L 28.140625 -47 L 28.46875 -50.65625 L 28.609375 -54.234375 L 28.671875 -59.84375 L 28.609375 -65.53125 L 28.265625 -72.90625 C 28.085938 -75.65625 27.863281 -78.085938 27.59375 -80.203125 L 27.390625 -82.640625 L 28.46875 -80.546875 L 29.34375 -78.453125 L 31.25 -74.1875 C 34.40625 -67.375 37.582031 -61.648438 40.78125 -57.015625 L 42.328125 -54.90625 L 43.828125 -52.75 C 44.503906 -51.664062 45.40625 -50.492188 46.53125 -49.234375 L 48.078125 -47.609375 L 49.640625 -45.984375 C 50.398438 -45.171875 51.164062 -44.832031 51.9375 -44.96875 C 53.914062 -45.289062 55.3125 -45.921875 56.125 -46.859375 C 57.84375 -48.890625 59.21875 -50.96875 60.25 -53.09375 L 62.21875 -57.28125 C 62.625 -58.050781 62.9375 -58.863281 63.15625 -59.71875 L 65.9375 -70.0625 L 67.890625 -76.890625 C 68.023438 -73.828125 68.023438 -70.648438 67.890625 -67.359375 L 67.6875 -61 L 67.6875 -54.640625 C 68.007812 -49.410156 68.078125 -44.878906 67.890625 -41.046875 L 67.96875 -39.296875 C 68.414062 -36.316406 68.503906 -33.335938 68.234375 -30.359375 L 68.171875 -28.609375 C 68.390625 -26.210938 68.390625 -22.648438 68.171875 -17.921875 C 68.078125 -16.023438 68.144531 -14.195312 68.375 -12.4375 C 68.6875 -10.28125 69.113281 -8.300781 69.65625 -6.5 C 70.289062 -4.332031 70.40625 -1.265625 70 2.703125 L 69.453125 9.53125 L 69.046875 16.296875 C 68.816406 19.316406 70.171875 20.738281 73.109375 20.5625 C 74.816406 20.425781 76.910156 20.628906 79.390625 21.171875 L 82.578125 21.703125 C 85.816406 22.242188 88.675781 21.703125 91.15625 20.078125 C 93.226562 18.734375 94.648438 17.222656 95.421875 15.546875 C 97.222656 11.453125 98.257812 7.664062 98.53125 4.1875 C 98.707031 2.070312 98.773438 -0.832031 98.734375 -4.53125 L 98.734375 -8.859375 L 98.796875 -13.1875 Z M 98.671875 -14.34375 "/></g></g></g><g fill="rgb(0%, 0%, 0%)" fill-opacity="1"><g transform="translate(380.131079, 418.034484)"><g><path d="M 47 -53.96875 C 47.3125 -37.957031 46.59375 -23.484375 44.84375 -10.546875 L 44.640625 -9.125 L 44.359375 -7.84375 C 44.085938 -6.851562 43.546875 -6 42.734375 -5.28125 C 42.109375 -4.6875 42.039062 -4.300781 42.53125 -4.125 L 43.21875 -4.0625 L 43.953125 -4.0625 L 48.625 -3.78125 L 53.21875 -3.578125 L 53.96875 -3.453125 L 54.640625 -3.3125 C 55.085938 -3.082031 55.3125 -2.675781 55.3125 -2.09375 C 55.3125 -0.832031 54.613281 -0.132812 53.21875 0 L 50.109375 0.34375 L 47 0.546875 C 44.476562 0.722656 42.40625 1.015625 40.78125 1.421875 C 37.757812 2.097656 33.363281 2.097656 27.59375 1.421875 L 21.03125 0.671875 C 18.59375 0.535156 16.382812 0.695312 14.40625 1.15625 C 13.90625 1.238281 13.519531 1.125 13.25 0.8125 L 12.921875 0.265625 L 12.640625 -0.34375 C 12.285156 -1.644531 12.785156 -2.476562 14.140625 -2.84375 C 16.890625 -3.46875 19.097656 -3.804688 20.765625 -3.859375 C 23.015625 -3.992188 24.140625 -5.1875 24.140625 -7.4375 C 24.179688 -31.738281 21.816406 -67.46875 17.046875 -114.625 C 16.816406 -117.15625 15.550781 -118.304688 13.25 -118.078125 L 10.421875 -118.078125 L 7.640625 -118.34375 C 5.335938 -118.4375 3.46875 -118.300781 2.03125 -117.9375 C 1.3125 -117.757812 0.75 -117.941406 0.34375 -118.484375 C 0.113281 -118.753906 0.0664062 -119.066406 0.203125 -119.421875 L 0.75 -120.234375 C 1.644531 -121.585938 3.039062 -122.242188 4.9375 -122.203125 C 9.488281 -122.023438 15.753906 -122.429688 23.734375 -123.421875 L 33.140625 -124.640625 C 36.648438 -124.992188 39.78125 -125.171875 42.53125 -125.171875 L 44.84375 -125.171875 C 45.78125 -125.171875 46.546875 -125.082031 47.140625 -124.90625 C 48.804688 -124.59375 49.75 -123.804688 49.96875 -122.546875 C 50.101562 -121.503906 49.40625 -120.710938 47.875 -120.171875 L 45.84375 -119.5625 L 43.828125 -119.09375 C 43.421875 -118.914062 42.785156 -118.800781 41.921875 -118.75 L 40.03125 -118.484375 L 39.296875 -118.28125 L 38.75 -117.875 C 38.34375 -117.46875 38.390625 -117.015625 38.890625 -116.515625 C 40.285156 -115.253906 41.140625 -113.585938 41.453125 -111.515625 L 41.71875 -108.671875 L 41.859375 -105.96875 L 43.625 -93.0625 L 45.171875 -80 C 46.296875 -70.082031 46.90625 -61.40625 47 -53.96875 Z M 47 -53.96875 "/></g></g></g><g fill="rgb(0%, 0%, 0%)" fill-opacity="1"><g transform="translate(448.97236, 418.034484)"><g><path d="M 53.96875 -40.171875 C 54.144531 -44.722656 54.078125 -48.191406 53.765625 -50.578125 C 53.628906 -51.929688 53.539062 -53.554688 53.5 -55.453125 L 53.5625 -60.328125 L 53.5625 -64.171875 C 53.332031 -71.703125 53.332031 -80.203125 53.5625 -89.671875 L 53.90625 -94.875 L 54.375 -100.15625 L 54.578125 -106.515625 C 54.617188 -108.085938 54.753906 -109.375 54.984375 -110.375 C 55.203125 -111.09375 55.515625 -111.742188 55.921875 -112.328125 C 56.515625 -113.140625 57.238281 -113.429688 58.09375 -113.203125 L 65.0625 -111.515625 C 66.320312 -111.203125 67.46875 -110.640625 68.5 -109.828125 C 69.269531 -109.148438 69.945312 -108.65625 70.53125 -108.34375 C 72.46875 -107.300781 73.820312 -105.519531 74.59375 -103 L 77.09375 -93.59375 C 77.320312 -92.738281 77.457031 -91.835938 77.5 -90.890625 L 77.703125 -82.296875 L 77.90625 -76.21875 L 77.96875 -70.125 C 78.101562 -64.175781 77.96875 -59.578125 77.5625 -56.328125 L 77.5 -55.796875 L 77.5 -55.25 C 77.539062 -54.882812 77.8125 -54.660156 78.3125 -54.578125 L 78.453125 -54.296875 L 78.578125 -53.828125 L 78.515625 -52.484375 L 77.4375 -42 L 77.296875 -41.59375 C 77.253906 -41.5 77.140625 -41.5 76.953125 -41.59375 C 76.953125 -41.59375 76.75 -41.863281 76.34375 -42.40625 L 75.8125 -38.890625 L 75.34375 -35.4375 C 74.976562 -32.457031 74.882812 -29.890625 75.0625 -27.734375 C 75.25 -25.242188 75.046875 -22.3125 74.453125 -18.9375 L 74.125 -15.625 L 73.984375 -14.203125 C 73.578125 -11.765625 72.15625 -10.769531 69.71875 -11.21875 C 65.84375 -11.945312 62.9375 -12.757812 61 -13.65625 C 58.5625 -14.78125 56.914062 -16.585938 56.0625 -19.078125 L 55.3125 -20.828125 L 54.578125 -22.65625 C 53.941406 -24.050781 53.554688 -25.269531 53.421875 -26.3125 L 53.15625 -26.984375 L 52.8125 -27.59375 L 44.359375 -41.515625 C 43.597656 -42.828125 42.675781 -44.539062 41.59375 -46.65625 L 36.25 -57.625 L 34.625 -60.9375 L 32.9375 -64.3125 L 31.78125 -66.546875 L 30.5625 -68.703125 L 30.359375 -68.84375 L 30.09375 -68.984375 C 29.863281 -68.890625 29.75 -68.707031 29.75 -68.4375 L 29.828125 -67.828125 L 30.765625 -60.53125 L 31.71875 -53.296875 C 32.394531 -48.960938 32.53125 -45.554688 32.125 -43.078125 C 32.03125 -42.359375 32.050781 -41.4375 32.1875 -40.3125 L 32.390625 -37.125 L 32.265625 -33.953125 C 32.171875 -31.515625 31.832031 -28.445312 31.25 -24.75 L 30.5625 -20.15625 L 29.890625 -15.546875 C 29.710938 -14.148438 29.375 -12.484375 28.875 -10.546875 L 27.390625 -5.6875 L 26.109375 -1.15625 C 25.785156 0.0625 25.019531 0.785156 23.8125 1.015625 L 23 1.15625 C 21.144531 1.0625 19.453125 1.644531 17.921875 2.90625 C 17.015625 3.625 16.066406 3.488281 15.078125 2.5 C 14.628906 2.050781 14.019531 1.625 13.25 1.21875 L 11.09375 0.0625 C 9.96875 -0.476562 9.203125 -1.46875 8.796875 -2.90625 L 7.171875 -8.796875 L 5.546875 -14.671875 L 4.46875 -19.546875 C 4.144531 -21.347656 3.984375 -22.992188 3.984375 -24.484375 C 4.035156 -26.054688 3.992188 -27.992188 3.859375 -30.296875 L 3.453125 -36.046875 L 3.109375 -43.953125 C 2.972656 -46.972656 2.722656 -49.585938 2.359375 -51.796875 L 2.171875 -53.5625 L 2.09375 -55.390625 L 1.15625 -65.328125 L 0.546875 -71.21875 L 0.265625 -77.15625 C 0.0859375 -87.4375 0.113281 -96.117188 0.34375 -103.203125 L 0.609375 -109.421875 C 0.742188 -111.941406 0.789062 -114.015625 0.75 -115.640625 C 0.695312 -117.128906 1.4375 -118.144531 2.96875 -118.6875 L 5.75 -119.5 L 8.515625 -120.3125 L 8.796875 -120.375 C 10.097656 -120.644531 11.5625 -120.507812 13.1875 -119.96875 L 15.21875 -119.15625 L 17.25 -118.28125 C 18.820312 -117.644531 20.035156 -116.335938 20.890625 -114.359375 L 22.1875 -111.453125 C 22.675781 -110.273438 23.015625 -109.257812 23.203125 -108.40625 C 23.335938 -107.90625 23.601562 -107.429688 24 -106.984375 C 24.90625 -105.898438 25.335938 -104.613281 25.296875 -103.125 C 25.203125 -100.644531 26.101562 -98.078125 28 -95.421875 C 28.8125 -94.335938 29.691406 -92.828125 30.640625 -90.890625 L 35.296875 -81.28125 L 39.765625 -71.609375 L 42.53125 -65.46875 C 43.53125 -63.070312 44.34375 -60.953125 44.96875 -59.109375 C 46.226562 -55.316406 48.007812 -51.164062 50.3125 -46.65625 L 51.59375 -43.953125 L 52.890625 -41.1875 L 53.15625 -40.640625 C 53.332031 -40.460938 53.601562 -40.304688 53.96875 -40.171875 Z M 53.96875 -40.171875 "/></g></g></g><g fill="rgb(0%, 0%, 0%)" fill-opacity="1"><g transform="translate(541.076315, 418.034484)"><g><path d="M 72.5625 -48.890625 C 69.445312 -50.421875 63.113281 -51.007812 53.5625 -50.65625 C 52.707031 -50.519531 51.46875 -50.425781 49.84375 -50.375 L 45.84375 -50.171875 C 42.507812 -49.953125 39.71875 -49.300781 37.46875 -48.21875 L 36.71875 -48.015625 L 35.90625 -47.75 C 35.414062 -47.519531 35.191406 -47.085938 35.234375 -46.453125 C 35.328125 -45.867188 35.6875 -45.488281 36.3125 -45.3125 L 37.125 -45.25 L 37.9375 -45.171875 C 40.375 -44.816406 43.257812 -44.660156 46.59375 -44.703125 L 50.921875 -44.84375 L 55.25 -45.046875 C 57.820312 -45.128906 58.972656 -44 58.703125 -41.65625 C 58.566406 -40.53125 58.476562 -39 58.4375 -37.0625 L 58.296875 -32.46875 C 57.660156 -22.050781 55.96875 -13.210938 53.21875 -5.953125 C 51.863281 -2.390625 49.769531 -0.925781 46.9375 -1.5625 C 38.5 -3.40625 32.929688 -7.664062 30.234375 -14.34375 C 26.484375 -23.539062 24.585938 -35.035156 24.546875 -48.828125 L 24.484375 -67.421875 C 24.566406 -74.367188 24.742188 -80.59375 25.015625 -86.09375 L 25.5 -91.5 L 26.234375 -96.90625 C 26.867188 -101.457031 27.140625 -105.109375 27.046875 -107.859375 C 27.003906 -109.578125 27.769531 -111.15625 29.34375 -112.59375 C 29.976562 -113.1875 30.75 -113.753906 31.65625 -114.296875 L 34.21875 -115.703125 C 35.300781 -116.242188 36.269531 -116.085938 37.125 -115.234375 L 38.078125 -114.015625 L 39.015625 -112.796875 C 40.640625 -111.128906 42.21875 -109.054688 43.75 -106.578125 C 45.332031 -104.003906 46.910156 -100.710938 48.484375 -96.703125 L 50.375 -91.5625 L 52.28125 -86.421875 L 52.75 -85.546875 L 52.953125 -85.6875 L 53.015625 -85.8125 C 52.835938 -86.8125 53.066406 -88.117188 53.703125 -89.734375 L 54.375 -91.640625 C 54.550781 -92.359375 54.59375 -93.03125 54.5 -93.65625 C 53.695312 -100.019531 51.128906 -107.367188 46.796875 -115.703125 C 44.898438 -119.453125 41.859375 -121.84375 37.671875 -122.875 C 33.835938 -123.820312 30.003906 -123.507812 26.171875 -121.9375 C 20.941406 -119.726562 16.523438 -116.882812 12.921875 -113.40625 C 8.765625 -109.488281 6.148438 -105.207031 5.078125 -100.5625 C 3.085938 -91.90625 1.9375 -84.601562 1.625 -78.65625 L 0.875 -65.796875 L 0.34375 -53.015625 C 0.113281 -43.273438 0.492188 -34.6875 1.484375 -27.25 C 4.097656 -7.457031 14.359375 5.410156 32.265625 11.359375 C 39.296875 13.660156 46.144531 13.117188 52.8125 9.734375 C 59.039062 6.492188 62.921875 1.332031 64.453125 -5.75 C 65.441406 -10.476562 65.734375 -16.296875 65.328125 -23.203125 L 64.65625 -31.921875 L 64.046875 -40.640625 C 63.910156 -43.523438 64.878906 -45.035156 66.953125 -45.171875 L 69.71875 -45.640625 L 72.5 -46.25 L 73.03125 -46.390625 L 73.578125 -46.59375 C 73.890625 -46.726562 74.070312 -47 74.125 -47.40625 C 74.164062 -47.90625 74.003906 -48.242188 73.640625 -48.421875 L 73.109375 -48.6875 Z M 72.5625 -48.890625 "/></g></g></g><g fill="rgb(0%, 0%, 0%)" fill-opacity="1"><g transform="translate(209.725313, 610.947678)"><g><path d="M 54.296875 -44.640625 C 54.484375 -44.316406 54.710938 -43.929688 54.984375 -43.484375 L 55.65625 -42.125 C 56.289062 -40.914062 56.8125 -39.90625 57.21875 -39.09375 C 58.5625 -36.519531 59.707031 -34.195312 60.65625 -32.125 C 63.363281 -25.945312 64.785156 -20.691406 64.921875 -16.359375 L 64.921875 -15.828125 C 64.921875 -4.867188 56.804688 0.609375 40.578125 0.609375 C 38.585938 0.609375 36.488281 0.519531 34.28125 0.34375 L 33.546875 0.265625 C 25.515625 -0.359375 19.203125 -2.835938 14.609375 -7.171875 C 11.410156 -10.097656 8.476562 -14.765625 5.8125 -21.171875 C 4.820312 -23.460938 3.921875 -26.144531 3.109375 -29.21875 L 2.234375 -33.265625 L 1.359375 -37.46875 L 1.21875 -37.9375 L 1.078125 -38.484375 L 1.078125 -38.890625 C 1.078125 -39.160156 1.101562 -39.40625 1.15625 -39.625 C 1.375 -40.570312 2.226562 -41.132812 3.71875 -41.3125 L 4.0625 -41.3125 C 5.144531 -41.3125 5.929688 -40.910156 6.421875 -40.109375 C 6.597656 -39.785156 6.753906 -39.378906 6.890625 -38.890625 L 7.171875 -38.28125 L 7.375 -37.796875 C 8 -36.085938 8.878906 -33.65625 10.015625 -30.5 L 11.21875 -26.921875 L 12.515625 -23.203125 C 15.265625 -16.296875 18.984375 -11.242188 23.671875 -8.046875 C 25.160156 -7.097656 26.691406 -6.285156 28.265625 -5.609375 C 30.066406 -4.929688 31.710938 -4.59375 33.203125 -4.59375 L 33.46875 -4.59375 C 39.644531 -4.78125 42.734375 -7.554688 42.734375 -12.921875 L 42.734375 -13.859375 C 42.242188 -21.703125 36.046875 -35.363281 24.140625 -54.84375 C 23.191406 -56.289062 21.679688 -58.992188 19.609375 -62.953125 C 17.265625 -67.285156 14.921875 -71.726562 12.578125 -76.28125 C 6.359375 -88.632812 2.59375 -97.113281 1.28125 -101.71875 C 0.425781 -104.863281 0 -107.722656 0 -110.296875 C 0 -116.835938 2.726562 -121.726562 8.1875 -124.96875 C 12.601562 -127.539062 18.101562 -128.828125 24.6875 -128.828125 C 26.664062 -128.828125 28.738281 -128.710938 30.90625 -128.484375 C 34.507812 -128.078125 37.550781 -126.679688 40.03125 -124.296875 C 45.21875 -119.378906 48.375 -112.523438 49.5 -103.734375 L 49.578125 -103.40625 L 49.578125 -103 C 49.617188 -102.863281 49.640625 -102.726562 49.640625 -102.59375 C 49.640625 -102.457031 49.617188 -102.320312 49.578125 -102.1875 C 49.304688 -101.507812 48.71875 -101.171875 47.8125 -101.171875 L 47.671875 -101.171875 C 47.128906 -101.171875 46.703125 -101.394531 46.390625 -101.84375 C 46.296875 -101.976562 46.226562 -102.203125 46.1875 -102.515625 L 46.046875 -102.859375 L 45.984375 -103.125 C 45.710938 -103.894531 45.421875 -104.867188 45.109375 -106.046875 L 44.359375 -109.015625 C 43.679688 -111.316406 42.914062 -113.210938 42.0625 -114.703125 C 41.164062 -116.234375 39.972656 -117.898438 38.484375 -119.703125 C 35.410156 -122.722656 31.507812 -124.390625 26.78125 -124.703125 C 26.238281 -124.742188 25.695312 -124.765625 25.15625 -124.765625 C 24.070312 -124.765625 23.015625 -124.675781 21.984375 -124.5 C 21.441406 -124.40625 20.898438 -124.316406 20.359375 -124.234375 C 20.171875 -124.179688 19.988281 -124.132812 19.8125 -124.09375 L 19.609375 -124.03125 L 19.484375 -124.03125 C 17.492188 -123.351562 16.050781 -122.203125 15.15625 -120.578125 C 14.75 -119.804688 14.546875 -119.019531 14.546875 -118.21875 C 14.546875 -117.488281 14.75 -116.765625 15.15625 -116.046875 L 16.96875 -113.28125 L 18.796875 -110.5 C 20.191406 -108.332031 21.320312 -106.507812 22.1875 -105.03125 C 23.269531 -102.945312 24.710938 -100.148438 26.515625 -96.640625 L 28.671875 -92.453125 L 30.84375 -88.25 L 39.703125 -71.890625 L 48.5625 -55.453125 L 51.46875 -50.046875 C 52.632812 -47.921875 53.578125 -46.117188 54.296875 -44.640625 Z M 54.296875 -44.640625 "/></g></g></g><g fill="rgb(0%, 0%, 0%)" fill-opacity="1"><g transform="translate(288.169209, 610.947678)"><g><path d="M 44.5625 -22.65625 C 46.007812 -22.789062 47.09375 -22.992188 47.8125 -23.265625 C 50.738281 -24.347656 53.0625 -26.421875 54.78125 -29.484375 L 55.921875 -31.78125 L 57.015625 -34.15625 C 57.503906 -35.320312 58.019531 -36.804688 58.5625 -38.609375 L 59.921875 -43.21875 C 61.046875 -46.957031 61.722656 -50.359375 61.953125 -53.421875 L 62.015625 -55.453125 L 62.015625 -60.125 L 62.078125 -62.765625 C 62.128906 -64.835938 61.925781 -66.59375 61.46875 -68.03125 L 61.40625 -68.578125 L 61.34375 -69.109375 C 60.976562 -72.222656 60.253906 -74.613281 59.171875 -76.28125 C 58.992188 -76.644531 58.789062 -77.140625 58.5625 -77.765625 C 58.34375 -78.492188 57.894531 -79.507812 57.21875 -80.8125 L 56.40625 -82.375 L 55.59375 -83.921875 C 55 -85.179688 54.59375 -86.285156 54.375 -87.234375 L 54.109375 -87.84375 L 53.703125 -88.453125 L 49.578125 -94.203125 C 48.804688 -95.191406 47.789062 -95.710938 46.53125 -95.765625 C 44.945312 -95.804688 43.679688 -95.671875 42.734375 -95.359375 L 41.796875 -95.078125 L 40.78125 -94.953125 C 38.65625 -94.859375 36.601562 -93.796875 34.625 -91.765625 C 33.363281 -90.460938 31.921875 -88.613281 30.296875 -86.21875 C 27.859375 -82.707031 26.347656 -79.753906 25.765625 -77.359375 L 25.09375 -74.734375 L 24.484375 -71.953125 L 24.203125 -70.609375 L 23.875 -69.1875 L 23.609375 -68.296875 L 23.40625 -67.421875 L 23.0625 -64.375 L 22.796875 -61.265625 C 22.609375 -57.078125 22.71875 -53 23.125 -49.03125 C 23.582031 -44.289062 24.414062 -40.410156 25.625 -37.390625 C 27.300781 -33.023438 29.3125 -29.875 31.65625 -27.9375 L 31.984375 -27.65625 L 32.265625 -27.328125 C 35.503906 -24.078125 39.601562 -22.519531 44.5625 -22.65625 Z M 67.96875 -73.71875 C 67.914062 -72.988281 67.984375 -72.128906 68.171875 -71.140625 L 68.578125 -68.640625 L 68.984375 -65.59375 L 69.1875 -62.484375 L 69.65625 -56.265625 C 69.695312 -55.273438 69.675781 -54.375 69.59375 -53.5625 L 69.25 -49.640625 L 68.90625 -45.640625 L 68.703125 -42.53125 L 68.4375 -39.421875 L 68.296875 -38.34375 L 68.09375 -37.265625 C 67.195312 -32.890625 65.9375 -28.535156 64.3125 -24.203125 C 63.363281 -21.816406 62.125 -19.539062 60.59375 -17.375 C 59.238281 -15.488281 57.273438 -13.707031 54.703125 -12.03125 C 53.128906 -11.039062 52.003906 -10.207031 51.328125 -9.53125 C 50.648438 -8.851562 49.835938 -8.3125 48.890625 -7.90625 L 46.046875 -6.828125 L 43.078125 -5.75 C 40.367188 -4.894531 37.460938 -4.847656 34.359375 -5.609375 C 30.117188 -6.691406 26.578125 -8 23.734375 -9.53125 L 22.71875 -10.078125 L 19.34375 -12.640625 L 16.03125 -15.21875 C 14.90625 -16.164062 13.617188 -17.40625 12.171875 -18.9375 C 10.597656 -20.601562 9.289062 -22.382812 8.25 -24.28125 C 6.132812 -28.289062 4.507812 -32.03125 3.375 -35.5 L 1.828125 -40.375 C 1.285156 -42.21875 0.878906 -43.863281 0.609375 -45.3125 L 0.40625 -46.328125 L 0.265625 -47.265625 L 0.0625 -54.171875 L 0 -61.0625 C 0.09375 -64.757812 0.519531 -68.523438 1.28125 -72.359375 L 2.96875 -80.609375 C 3.15625 -81.285156 3.425781 -82.144531 3.78125 -83.1875 L 4.671875 -85.6875 C 5.566406 -88.300781 7.4375 -91.816406 10.28125 -96.234375 C 12.582031 -99.890625 15.515625 -102.660156 19.078125 -104.546875 C 20.421875 -105.316406 21.863281 -105.878906 23.40625 -106.234375 L 26.4375 -106.921875 C 27.613281 -107.234375 28.609375 -107.546875 29.421875 -107.859375 C 30.273438 -108.265625 31.289062 -108.359375 32.46875 -108.140625 C 33.675781 -107.910156 35.070312 -107.910156 36.65625 -108.140625 C 40.257812 -108.585938 43.617188 -108.316406 46.734375 -107.328125 C 47.816406 -106.960938 48.71875 -106.597656 49.4375 -106.234375 C 52.457031 -104.484375 54.6875 -102.796875 56.125 -101.171875 C 59.195312 -97.742188 61.453125 -94.539062 62.890625 -91.5625 L 63.09375 -91.15625 L 63.234375 -90.75 C 63.679688 -88.726562 64.5625 -86.296875 65.875 -83.453125 C 66.28125 -82.597656 66.617188 -81.472656 66.890625 -80.078125 L 67.21875 -78.3125 L 67.484375 -76.546875 L 67.765625 -75.140625 Z M 67.96875 -73.71875 "/></g></g></g><g fill="rgb(0%, 0%, 0%)" fill-opacity="1"><g transform="translate(368.168471, 610.947678)"><g><path d="M 44.5625 -22.65625 C 46.007812 -22.789062 47.09375 -22.992188 47.8125 -23.265625 C 50.738281 -24.347656 53.0625 -26.421875 54.78125 -29.484375 L 55.921875 -31.78125 L 57.015625 -34.15625 C 57.503906 -35.320312 58.019531 -36.804688 58.5625 -38.609375 L 59.921875 -43.21875 C 61.046875 -46.957031 61.722656 -50.359375 61.953125 -53.421875 L 62.015625 -55.453125 L 62.015625 -60.125 L 62.078125 -62.765625 C 62.128906 -64.835938 61.925781 -66.59375 61.46875 -68.03125 L 61.40625 -68.578125 L 61.34375 -69.109375 C 60.976562 -72.222656 60.253906 -74.613281 59.171875 -76.28125 C 58.992188 -76.644531 58.789062 -77.140625 58.5625 -77.765625 C 58.34375 -78.492188 57.894531 -79.507812 57.21875 -80.8125 L 56.40625 -82.375 L 55.59375 -83.921875 C 55 -85.179688 54.59375 -86.285156 54.375 -87.234375 L 54.109375 -87.84375 L 53.703125 -88.453125 L 49.578125 -94.203125 C 48.804688 -95.191406 47.789062 -95.710938 46.53125 -95.765625 C 44.945312 -95.804688 43.679688 -95.671875 42.734375 -95.359375 L 41.796875 -95.078125 L 40.78125 -94.953125 C 38.65625 -94.859375 36.601562 -93.796875 34.625 -91.765625 C 33.363281 -90.460938 31.921875 -88.613281 30.296875 -86.21875 C 27.859375 -82.707031 26.347656 -79.753906 25.765625 -77.359375 L 25.09375 -74.734375 L 24.484375 -71.953125 L 24.203125 -70.609375 L 23.875 -69.1875 L 23.609375 -68.296875 L 23.40625 -67.421875 L 23.0625 -64.375 L 22.796875 -61.265625 C 22.609375 -57.078125 22.71875 -53 23.125 -49.03125 C 23.582031 -44.289062 24.414062 -40.410156 25.625 -37.390625 C 27.300781 -33.023438 29.3125 -29.875 31.65625 -27.9375 L 31.984375 -27.65625 L 32.265625 -27.328125 C 35.503906 -24.078125 39.601562 -22.519531 44.5625 -22.65625 Z M 67.96875 -73.71875 C 67.914062 -72.988281 67.984375 -72.128906 68.171875 -71.140625 L 68.578125 -68.640625 L 68.984375 -65.59375 L 69.1875 -62.484375 L 69.65625 -56.265625 C 69.695312 -55.273438 69.675781 -54.375 69.59375 -53.5625 L 69.25 -49.640625 L 68.90625 -45.640625 L 68.703125 -42.53125 L 68.4375 -39.421875 L 68.296875 -38.34375 L 68.09375 -37.265625 C 67.195312 -32.890625 65.9375 -28.535156 64.3125 -24.203125 C 63.363281 -21.816406 62.125 -19.539062 60.59375 -17.375 C 59.238281 -15.488281 57.273438 -13.707031 54.703125 -12.03125 C 53.128906 -11.039062 52.003906 -10.207031 51.328125 -9.53125 C 50.648438 -8.851562 49.835938 -8.3125 48.890625 -7.90625 L 46.046875 -6.828125 L 43.078125 -5.75 C 40.367188 -4.894531 37.460938 -4.847656 34.359375 -5.609375 C 30.117188 -6.691406 26.578125 -8 23.734375 -9.53125 L 22.71875 -10.078125 L 19.34375 -12.640625 L 16.03125 -15.21875 C 14.90625 -16.164062 13.617188 -17.40625 12.171875 -18.9375 C 10.597656 -20.601562 9.289062 -22.382812 8.25 -24.28125 C 6.132812 -28.289062 4.507812 -32.03125 3.375 -35.5 L 1.828125 -40.375 C 1.285156 -42.21875 0.878906 -43.863281 0.609375 -45.3125 L 0.40625 -46.328125 L 0.265625 -47.265625 L 0.0625 -54.171875 L 0 -61.0625 C 0.09375 -64.757812 0.519531 -68.523438 1.28125 -72.359375 L 2.96875 -80.609375 C 3.15625 -81.285156 3.425781 -82.144531 3.78125 -83.1875 L 4.671875 -85.6875 C 5.566406 -88.300781 7.4375 -91.816406 10.28125 -96.234375 C 12.582031 -99.890625 15.515625 -102.660156 19.078125 -104.546875 C 20.421875 -105.316406 21.863281 -105.878906 23.40625 -106.234375 L 26.4375 -106.921875 C 27.613281 -107.234375 28.609375 -107.546875 29.421875 -107.859375 C 30.273438 -108.265625 31.289062 -108.359375 32.46875 -108.140625 C 33.675781 -107.910156 35.070312 -107.910156 36.65625 -108.140625 C 40.257812 -108.585938 43.617188 -108.316406 46.734375 -107.328125 C 47.816406 -106.960938 48.71875 -106.597656 49.4375 -106.234375 C 52.457031 -104.484375 54.6875 -102.796875 56.125 -101.171875 C 59.195312 -97.742188 61.453125 -94.539062 62.890625 -91.5625 L 63.09375 -91.15625 L 63.234375 -90.75 C 63.679688 -88.726562 64.5625 -86.296875 65.875 -83.453125 C 66.28125 -82.597656 66.617188 -81.472656 66.890625 -80.078125 L 67.21875 -78.3125 L 67.484375 -76.546875 L 67.765625 -75.140625 Z M 67.96875 -73.71875 "/></g></g></g><g fill="rgb(0%, 0%, 0%)" fill-opacity="1"><g transform="translate(448.167732, 610.947678)"><g><path d="M 53.96875 -40.171875 C 54.144531 -44.722656 54.078125 -48.191406 53.765625 -50.578125 C 53.628906 -51.929688 53.539062 -53.554688 53.5 -55.453125 L 53.5625 -60.328125 L 53.5625 -64.171875 C 53.332031 -71.703125 53.332031 -80.203125 53.5625 -89.671875 L 53.90625 -94.875 L 54.375 -100.15625 L 54.578125 -106.515625 C 54.617188 -108.085938 54.753906 -109.375 54.984375 -110.375 C 55.203125 -111.09375 55.515625 -111.742188 55.921875 -112.328125 C 56.515625 -113.140625 57.238281 -113.429688 58.09375 -113.203125 L 65.0625 -111.515625 C 66.320312 -111.203125 67.46875 -110.640625 68.5 -109.828125 C 69.269531 -109.148438 69.945312 -108.65625 70.53125 -108.34375 C 72.46875 -107.300781 73.820312 -105.519531 74.59375 -103 L 77.09375 -93.59375 C 77.320312 -92.738281 77.457031 -91.835938 77.5 -90.890625 L 77.703125 -82.296875 L 77.90625 -76.21875 L 77.96875 -70.125 C 78.101562 -64.175781 77.96875 -59.578125 77.5625 -56.328125 L 77.5 -55.796875 L 77.5 -55.25 C 77.539062 -54.882812 77.8125 -54.660156 78.3125 -54.578125 L 78.453125 -54.296875 L 78.578125 -53.828125 L 78.515625 -52.484375 L 77.4375 -42 L 77.296875 -41.59375 C 77.253906 -41.5 77.140625 -41.5 76.953125 -41.59375 C 76.953125 -41.59375 76.75 -41.863281 76.34375 -42.40625 L 75.8125 -38.890625 L 75.34375 -35.4375 C 74.976562 -32.457031 74.882812 -29.890625 75.0625 -27.734375 C 75.25 -25.242188 75.046875 -22.3125 74.453125 -18.9375 L 74.125 -15.625 L 73.984375 -14.203125 C 73.578125 -11.765625 72.15625 -10.769531 69.71875 -11.21875 C 65.84375 -11.945312 62.9375 -12.757812 61 -13.65625 C 58.5625 -14.78125 56.914062 -16.585938 56.0625 -19.078125 L 55.3125 -20.828125 L 54.578125 -22.65625 C 53.941406 -24.050781 53.554688 -25.269531 53.421875 -26.3125 L 53.15625 -26.984375 L 52.8125 -27.59375 L 44.359375 -41.515625 C 43.597656 -42.828125 42.675781 -44.539062 41.59375 -46.65625 L 36.25 -57.625 L 34.625 -60.9375 L 32.9375 -64.3125 L 31.78125 -66.546875 L 30.5625 -68.703125 L 30.359375 -68.84375 L 30.09375 -68.984375 C 29.863281 -68.890625 29.75 -68.707031 29.75 -68.4375 L 29.828125 -67.828125 L 30.765625 -60.53125 L 31.71875 -53.296875 C 32.394531 -48.960938 32.53125 -45.554688 32.125 -43.078125 C 32.03125 -42.359375 32.050781 -41.4375 32.1875 -40.3125 L 32.390625 -37.125 L 32.265625 -33.953125 C 32.171875 -31.515625 31.832031 -28.445312 31.25 -24.75 L 30.5625 -20.15625 L 29.890625 -15.546875 C 29.710938 -14.148438 29.375 -12.484375 28.875 -10.546875 L 27.390625 -5.6875 L 26.109375 -1.15625 C 25.785156 0.0625 25.019531 0.785156 23.8125 1.015625 L 23 1.15625 C 21.144531 1.0625 19.453125 1.644531 17.921875 2.90625 C 17.015625 3.625 16.066406 3.488281 15.078125 2.5 C 14.628906 2.050781 14.019531 1.625 13.25 1.21875 L 11.09375 0.0625 C 9.96875 -0.476562 9.203125 -1.46875 8.796875 -2.90625 L 7.171875 -8.796875 L 5.546875 -14.671875 L 4.46875 -19.546875 C 4.144531 -21.347656 3.984375 -22.992188 3.984375 -24.484375 C 4.035156 -26.054688 3.992188 -27.992188 3.859375 -30.296875 L 3.453125 -36.046875 L 3.109375 -43.953125 C 2.972656 -46.972656 2.722656 -49.585938 2.359375 -51.796875 L 2.171875 -53.5625 L 2.09375 -55.390625 L 1.15625 -65.328125 L 0.546875 -71.21875 L 0.265625 -77.15625 C 0.0859375 -87.4375 0.113281 -96.117188 0.34375 -103.203125 L 0.609375 -109.421875 C 0.742188 -111.941406 0.789062 -114.015625 0.75 -115.640625 C 0.695312 -117.128906 1.4375 -118.144531 2.96875 -118.6875 L 5.75 -119.5 L 8.515625 -120.3125 L 8.796875 -120.375 C 10.097656 -120.644531 11.5625 -120.507812 13.1875 -119.96875 L 15.21875 -119.15625 L 17.25 -118.28125 C 18.820312 -117.644531 20.035156 -116.335938 20.890625 -114.359375 L 22.1875 -111.453125 C 22.675781 -110.273438 23.015625 -109.257812 23.203125 -108.40625 C 23.335938 -107.90625 23.601562 -107.429688 24 -106.984375 C 24.90625 -105.898438 25.335938 -104.613281 25.296875 -103.125 C 25.203125 -100.644531 26.101562 -98.078125 28 -95.421875 C 28.8125 -94.335938 29.691406 -92.828125 30.640625 -90.890625 L 35.296875 -81.28125 L 39.765625 -71.609375 L 42.53125 -65.46875 C 43.53125 -63.070312 44.34375 -60.953125 44.96875 -59.109375 C 46.226562 -55.316406 48.007812 -51.164062 50.3125 -46.65625 L 51.59375 -43.953125 L 52.890625 -41.1875 L 53.15625 -40.640625 C 53.332031 -40.460938 53.601562 -40.304688 53.96875 -40.171875 Z M 53.96875 -40.171875 "/></g></g></g></svg>